<?xml version="1.0" encoding="UTF-8" standalone="no"?>
<svg
   xmlns:dc="http://purl.org/dc/elements/1.1/"
   xmlns:cc="http://creativecommons.org/ns#"
   xmlns:rdf="http://www.w3.org/1999/02/22-rdf-syntax-ns#"
   xmlns:svg="http://www.w3.org/2000/svg"
   xmlns="http://www.w3.org/2000/svg"
   xmlns:sodipodi="http://sodipodi.sourceforge.net/DTD/sodipodi-0.dtd"
   xmlns:inkscape="http://www.inkscape.org/namespaces/inkscape"
   id="svg3"
   version="1.1"
   height="64"
   width="64"
   sodipodi:docname="load-waiting.svg"
   inkscape:version="0.92.3 (2405546, 2018-03-11)">
  <metadata
     id="metadata8">
    <rdf:RDF>
      <cc:Work
         rdf:about="">
        <dc:format>image/svg+xml</dc:format>
        <dc:type
           rdf:resource="http://purl.org/dc/dcmitype/StillImage" />
      </cc:Work>
    </rdf:RDF>
  </metadata>
  <defs
     id="defs6" />
  <sodipodi:namedview
     pagecolor="#ffffff"
     bordercolor="#666666"
     borderopacity="1"
     objecttolerance="10"
     gridtolerance="10"
     guidetolerance="10"
     inkscape:pageopacity="0"
     inkscape:pageshadow="2"
     inkscape:window-width="1600"
     inkscape:window-height="877"
     id="namedview4"
     showgrid="false"
     inkscape:zoom="6.4576858"
     inkscape:cx="35.300418"
     inkscape:cy="13.994273"
     inkscape:window-x="-8"
     inkscape:window-y="-8"
     inkscape:window-maximized="1"
     inkscape:current-layer="svg3" />
  <path
     d="m 55.931092,36.324856 c -0.371961,1.805874 -0.951358,3.526074 -1.738193,5.160599 -0.772532,1.634503 -1.716736,3.156974 -2.832612,4.567412 -1.101571,1.410416 -2.360508,2.682442 -3.776813,3.816077 -1.402,1.146793 -2.911294,2.122225 -4.527884,2.926298 -1.616592,0.804073 -3.326173,1.423607 -5.128741,1.858601 -1.802572,0.448174 -3.655214,0.672261 -5.557929,0.672261 -1.702427,0 -3.361936,-0.17795 -4.978527,-0.533849 -1.602285,-0.355899 -3.140192,-0.863389 -4.613722,-1.52247 -1.47353,-0.645903 -2.868376,-1.436797 -4.184538,-2.372681 -1.316163,-0.935906 -2.517876,-1.983846 -3.605141,-3.143817 l -8.3476166,7.67166 V 36.324856 H 27.390393 l -8.154485,7.513511 c 1.630897,1.647682 3.576528,2.919698 5.836895,3.816046 2.274672,0.883168 4.706711,1.324752 7.296117,1.324752 2.074388,0 4.055786,-0.289993 5.944193,-0.869979 1.888405,-0.579985 3.590833,-1.417017 5.107283,-2.511093 1.530753,-1.094076 2.825457,-2.418818 3.88411,-3.974226 1.05865,-1.568608 1.795414,-3.334946 2.210292,-5.299011 z M 57.341268,8.9486294 V 27.771927 H 36.611709 l 8.133025,-7.375098 c -1.630898,-1.726778 -3.597988,-3.051521 -5.901271,-3.974226 -2.288979,-0.935906 -4.756784,-1.403859 -7.403416,-1.403859 -2.06008,0 -4.034324,0.296593 -5.922731,0.889779 -1.888407,0.593165 -3.597988,1.443375 -5.128742,2.55063 -1.516448,1.107255 -2.803998,2.451777 -3.86265,4.033564 -1.058653,1.568608 -1.795418,3.328345 -2.210294,5.27921 H 7.8778782 c 0.3719591,-1.792695 0.9513567,-3.512894 1.7381928,-5.160598 0.786836,-1.647682 1.738193,-3.176743 2.85407,-4.587181 1.115877,-1.410417 2.374814,-2.689032 3.776813,-3.835846 1.402,-1.159971 2.911295,-2.148583 4.527885,-2.965835 1.616591,-0.817251 3.326172,-1.4433748 5.128742,-1.8783698 1.80257,-0.4481733 3.648059,-0.67226 5.536466,-0.67226 1.73104,0 3.412009,0.1845388 5.042907,0.5536165 1.645203,0.3690781 3.211722,0.8963373 4.699556,1.5817763 1.487837,0.672261 2.889836,1.489523 4.205998,2.451787 1.33047,0.962265 2.546489,2.043151 3.648059,3.24266 z"
     style="font-size:12.69999981px;fill:#7a2525;fill-opacity:1;stroke-width:0.23253423"
     id="path4529"
     inkscape:connector-curvature="0"
     sodipodi:nodetypes="ccccscscccccccccsscccccccccsccccccccscsccccc" />
</svg>
